<svg aria-hidden="true" style="position:absolute;width:0;height:0" xmlns="http://www.w3.org/2000/svg" overflow="hidden"><defs><symbol id="glass" viewBox="0 0 32 32"><path d="M31.096 26.862a2.996 2.996 0 11-4.238 4.238l-8.78-8.78a11.89 11.89 0 01-6.077 1.669C5.383 23.989.018 18.624.018 12.006S5.383.023 12.001.023s11.983 5.365 11.983 11.983c0 2.222-.616 4.294-1.669 6.077l8.78 8.78zM12.001 3.018c-4.964 0-8.987 4.023-8.987 8.987s4.023 8.987 8.987 8.987 8.987-4.023 8.987-8.987-4.023-8.987-8.987-8.987z"/></symbol><symbol id="cart" viewBox="0 0 40 32"><path d="M39.994 7.07l.002.002-5.645 12.544a1.878 1.878 0 01-1.59 1.104l-16.257 1.083.94 2.684h17.7a3.763 3.763 0 11-3.763 3.763H13.82a3.762 3.762 0 01-3.763 3.763 3.762 3.762 0 110-7.526h3.4L6.214 3.79h-4.31a1.881 1.881 0 110-3.764h5.645c.821 0 1.512.529 1.77 1.264l.007-.002 1.095 3.129h27.861c1.04 0 1.882.842 1.882 1.882 0 .276-.062.536-.169.771zM11.739 8.181l3.478 9.937 16.168-1.076 3.987-8.86H11.74z"/></symbol></defs></svg>