<svg aria-hidden="true" style="position: absolute; width: 0; height: 0; overflow: hidden;" version="1.1" xmlns="http://www.w3.org/2000/svg" xmlns:xlink="http://www.w3.org/1999/xlink">
<defs>
<symbol id="facebook" viewBox="0 0 15 32">
<path d="M14.982 0.011c0 1.844 0 5.147 0 5.147s-3.793-0.378-4.744 1.075c-0.52 0.794-0.211 3.123-0.257 4.794 1.656 0 3.376 0 5.032 0-0.425 1.953-0.729 3.277-1.043 4.969-1.433 0-4.017 0-4.017 0v15.992c0 0-4.743 0-6.972 0 0.001-4.93-0.001-10.682 0-15.93-1.083 0-1.884 0-2.966 0 0-1.844 0-3.186 0-5.031 1.050 0 1.882 0 2.934 0 0.15-3.68 0.206-7.324 2.035-9.18 2.053-2.087 4.013-1.836 9.998-1.836z"></path>
</symbol>
<symbol id="instagram" viewBox="0 0 32 32">
<path d="M27.962 31.988h-23.981c-2.207 0-3.997-1.79-3.997-3.998v-23.98c0-2.208 1.79-3.998 3.997-3.998h23.981c2.207 0 3.997 1.79 3.997 3.998v23.98c0 2.208-1.79 3.998-3.997 3.998zM15.971 9.804c-2.493 0-4.635 1.476-5.618 3.597h-0.006c-0.010 0.022-0.018 0.046-0.027 0.069-0.059 0.131-0.11 0.266-0.16 0.401-0.024 0.066-0.050 0.13-0.071 0.195-0.046 0.14-0.084 0.281-0.119 0.425-0.018 0.066-0.037 0.132-0.052 0.2-0.032 0.151-0.055 0.305-0.076 0.46-0.009 0.062-0.021 0.124-0.029 0.187-0.022 0.217-0.036 0.438-0.036 0.663 0 3.421 2.774 6.194 6.195 6.194s6.195-2.773 6.195-6.194c0-0.225-0.014-0.446-0.036-0.663-0.008-0.064-0.020-0.125-0.029-0.187-0.021-0.155-0.044-0.309-0.076-0.46-0.015-0.067-0.035-0.134-0.052-0.2-0.035-0.144-0.072-0.285-0.119-0.425-0.021-0.065-0.047-0.129-0.071-0.195-0.050-0.135-0.101-0.27-0.16-0.401-0.010-0.022-0.017-0.046-0.027-0.069h-0.006c-0.983-2.121-3.125-3.597-5.618-3.597zM28.362 5.207c0-0.883-0.716-1.598-1.599-1.598h-3.197c-0.883 0-1.599 0.714-1.599 1.598v3.199c0 0.883 0.716 1.599 1.599 1.599h3.197c0.883 0 1.599-0.716 1.599-1.599v-3.199zM28.362 13.401h-2.948c0.227 0.828 0.35 1.7 0.35 2.599 0 5.408-4.384 9.791-9.792 9.791s-9.792-4.383-9.792-9.791c0-0.899 0.122-1.771 0.35-2.599h-2.948v13.39c0 0.884 0.716 1.6 1.599 1.6h21.583c0.883 0 1.599-0.716 1.599-1.6v-13.39z"></path>
</symbol>
<symbol id="pinterest" viewBox="0 0 24 32">
<path d="M10.173 20.776c-0.261 1.040-0.525 2.131-0.797 3.198-0.269 1.052-0.506 2.118-0.897 3.085-0.648 1.6-1.471 3.146-2.552 4.398-0.718 0.833-0.566 0.501-0.782 0.456-0.165-0.035-0.179-0.196-0.211-0.431-0.176-1.271-0.056-2.742 0.009-4.171 0.075-1.629 0.417-2.983 0.736-4.335 0.605-2.578 1.182-5.105 1.792-7.699 0.040-0.172 0.15-0.457 0.112-0.556-0.277-0.721-0.457-1.368-0.536-2.125-0.091-0.868-0.021-1.679 0.174-2.427 0.346-1.321 1.14-2.492 2.366-2.92 0.779-0.27 1.642-0.147 2.167 0.165 0.54 0.324 0.911 0.833 1.083 1.556 0.185 0.768 0.049 1.687-0.1 2.362-0.334 1.523-0.772 2.665-1.17 4.134-0.197 0.728-0.421 1.476-0.236 2.263 0.17 0.722 0.546 1.219 1.058 1.593 0.532 0.387 1.162 0.598 2.030 0.568 1.534-0.054 2.599-1.034 3.311-1.958 1.14-1.48 1.83-3.477 2.092-5.853 0.084-0.767 0.146-1.647 0.087-2.516-0.11-1.604-0.611-2.894-1.408-3.893-0.757-0.953-1.831-1.71-3.138-2.137-1.295-0.422-3.088-0.563-4.68-0.291-2.895 0.496-4.936 2.141-6.139 4.413-0.63 1.189-1.045 2.557-1.045 4.259 0 1.313 0.324 2.329 0.847 3.123 0.166 0.251 0.41 0.458 0.572 0.746 0.231 0.407-0.035 1.013-0.149 1.454-0.137 0.531-0.152 1.264-0.772 1.276-0.257 0.005-0.58-0.182-0.797-0.303-1.63-0.901-2.619-2.539-3.025-4.664-0.247-1.292-0.246-2.797 0-4.044 0.237-1.208 0.679-2.321 1.17-3.224 1.017-1.877 2.507-3.379 4.32-4.45 1.394-0.824 2.966-1.403 4.88-1.681 0.634-0.092 1.292-0.131 2.005-0.165 2.083-0.097 3.977 0.375 5.403 1.012 1.505 0.673 2.707 1.569 3.722 2.68 1.047 1.143 1.809 2.472 2.291 4.133 0.252 0.864 0.497 1.789 0.497 2.857 0 1.072-0.226 2.015-0.385 2.958-0.592 3.532-2.272 6.421-4.794 8.066-0.611 0.397-1.35 0.766-2.191 1.010-0.833 0.242-1.784 0.425-2.802 0.353-0.988-0.067-1.797-0.336-2.477-0.721-0.674-0.381-1.242-0.848-1.644-1.554z"></path>
</symbol>
<symbol id="twitter" viewBox="0 0 39 32">
<path d="M26.811 0.017c3.131-0.055 4.798 1.085 6.389 2.535 1.351-0.115 3.108-0.87 4.142-1.396 0.334-0.182 0.67-0.366 1.005-0.549-0.591 1.596-1.391 2.846-2.623 3.796-0.274 0.209-0.545 0.494-0.888 0.628 0 0.006 0 0.014 0 0.020 1.755-0.017 3.202-0.81 4.576-1.239 0 0.006 0 0.014 0 0.020-0.722 1.147-1.699 2.312-2.741 3.146-0.42 0.334-0.842 0.668-1.262 1.002 0.023 1.858-0.028 3.631-0.374 5.192-2.019 9.074-7.37 15.233-15.837 17.873-3.041 0.947-7.955 1.336-11.439 0.471-1.727-0.428-3.288-0.913-4.752-1.553-0.814-0.356-1.568-0.74-2.289-1.181-0.237-0.143-0.473-0.288-0.71-0.431 0.785 0.023 1.705 0.24 2.583 0.097 0.796-0.128 1.575-0.094 2.309-0.254 1.829-0.402 3.452-0.933 4.85-1.752 0.679-0.397 1.709-0.862 2.19-1.435-0.908 0.015-1.732-0.195-2.406-0.433-2.615-0.924-4.137-2.621-5.129-5.172 0.793 0.088 3.075 0.294 3.609-0.157-0.997-0.055-1.956-0.633-2.643-1.062-2.104-1.316-3.819-3.523-3.806-6.92 0.277 0.131 0.553 0.262 0.828 0.393 0.53 0.223 1.067 0.342 1.696 0.473 0.266 0.055 0.799 0.211 1.105 0.097-0.014 0-0.026 0-0.040 0-0.406-0.473-1.070-0.788-1.479-1.298-1.35-1.676-2.614-4.257-1.815-7.333 0.203-0.78 0.525-1.468 0.868-2.104 0.014 0.006 0.026 0.012 0.040 0.018 0.157 0.329 0.508 0.571 0.73 0.847 0.69 0.854 1.539 1.622 2.406 2.3 2.952 2.309 5.61 3.728 9.88 4.778 1.084 0.268 2.335 0.471 3.629 0.473-0.363-1.057-0.246-2.771 0.038-3.794 0.72-2.577 2.283-4.431 4.576-5.427 0.548-0.237 1.156-0.411 1.795-0.551 0.329-0.038 0.657-0.079 0.987-0.117z"></path>
</symbol>
</defs>
</svg>
