<svg aria-hidden="true" style="position:absolute;width:0;height:0" xmlns="http://www.w3.org/2000/svg" overflow="hidden"><defs><symbol id="facebook" viewBox="0 0 15 32"><path d="M14.982.011v5.147s-3.793-.378-4.744 1.075c-.52.794-.211 3.123-.257 4.794h5.032c-.425 1.953-.729 3.277-1.043 4.969H9.953v15.992H2.981v-15.93H.015v-5.031h2.934c.15-3.68.206-7.324 2.035-9.18C7.037-.24 8.997.011 14.982.011z"/></symbol><symbol id="instagram" viewBox="0 0 32 32"><path d="M27.962 31.988H3.981A3.998 3.998 0 01-.016 27.99V4.01A3.998 3.998 0 013.981.012h23.981a3.998 3.998 0 013.997 3.998v23.98a3.998 3.998 0 01-3.997 3.998zM15.971 9.804a6.19 6.19 0 00-5.618 3.597h-.006c-.01.022-.018.046-.027.069-.059.131-.11.266-.16.401-.024.066-.05.13-.071.195-.046.14-.084.281-.119.425-.018.066-.037.132-.052.2a6.3 6.3 0 00-.076.46c-.009.062-.021.124-.029.187a6.195 6.195 0 1012.318 0c-.008-.064-.02-.125-.029-.187a6.3 6.3 0 00-.076-.46c-.015-.067-.035-.134-.052-.2a5.142 5.142 0 00-.119-.425c-.021-.065-.047-.129-.071-.195a6.315 6.315 0 00-.16-.401c-.01-.022-.017-.046-.027-.069h-.006a6.19 6.19 0 00-5.618-3.597zm12.391-4.597c0-.883-.716-1.598-1.599-1.598h-3.197c-.883 0-1.599.714-1.599 1.598v3.199a1.6 1.6 0 001.599 1.599h3.197a1.6 1.6 0 001.599-1.599V5.207zm0 8.194h-2.948c.227.828.35 1.7.35 2.599 0 5.408-4.384 9.791-9.792 9.791S6.18 21.408 6.18 16c0-.899.122-1.771.35-2.599H3.582v13.39a1.6 1.6 0 001.599 1.6h21.583a1.6 1.6 0 001.599-1.6v-13.39z"/></symbol><symbol id="pinterest" viewBox="0 0 24 32"><path d="M10.173 20.776c-.261 1.04-.525 2.131-.797 3.198-.269 1.052-.506 2.118-.897 3.085-.648 1.6-1.471 3.146-2.552 4.398-.718.833-.566.501-.782.456-.165-.035-.179-.196-.211-.431-.176-1.271-.056-2.742.009-4.171.075-1.629.417-2.983.736-4.335.605-2.578 1.182-5.105 1.792-7.699.04-.172.15-.457.112-.556-.277-.721-.457-1.368-.536-2.125a6.765 6.765 0 01.174-2.427c.346-1.321 1.14-2.492 2.366-2.92.779-.27 1.642-.147 2.167.165.54.324.911.833 1.083 1.556.185.768.049 1.687-.1 2.362-.334 1.523-.772 2.665-1.17 4.134-.197.728-.421 1.476-.236 2.263a2.64 2.64 0 001.058 1.593c.532.387 1.162.598 2.03.568 1.534-.054 2.599-1.034 3.311-1.958 1.14-1.48 1.83-3.477 2.092-5.853.084-.767.146-1.647.087-2.516-.11-1.604-.611-2.894-1.408-3.893-.757-.953-1.831-1.71-3.138-2.137-1.295-.422-3.088-.563-4.68-.291-2.895.496-4.936 2.141-6.139 4.413-.63 1.189-1.045 2.557-1.045 4.259 0 1.313.324 2.329.847 3.123.166.251.41.458.572.746.231.407-.035 1.013-.149 1.454-.137.531-.152 1.264-.772 1.276-.257.005-.58-.182-.797-.303-1.63-.901-2.619-2.539-3.025-4.664-.247-1.292-.246-2.797 0-4.044a11.48 11.48 0 011.17-3.224c1.017-1.877 2.507-3.379 4.32-4.45C7.059 1.004 8.631.425 10.545.147c.634-.092 1.292-.131 2.005-.165A12.058 12.058 0 0117.953.994a11.04 11.04 0 013.722 2.68c1.047 1.143 1.809 2.472 2.291 4.133.252.864.497 1.789.497 2.857 0 1.072-.226 2.015-.385 2.958-.592 3.532-2.272 6.421-4.794 8.066a8.275 8.275 0 01-2.191 1.01c-.833.242-1.784.425-2.802.353-.988-.067-1.797-.336-2.477-.721-.674-.381-1.242-.848-1.644-1.554z"/></symbol><symbol id="twitter" viewBox="0 0 39 32"><path d="M26.811.017c3.131-.055 4.798 1.085 6.389 2.535 1.351-.115 3.108-.87 4.142-1.396l1.005-.549c-.591 1.596-1.391 2.846-2.623 3.796-.274.209-.545.494-.888.628v.02c1.755-.017 3.202-.81 4.576-1.239v.02c-.722 1.147-1.699 2.312-2.741 3.146L35.409 7.98c.023 1.858-.028 3.631-.374 5.192-2.019 9.074-7.37 15.233-15.837 17.873-3.041.947-7.955 1.336-11.439.471-1.727-.428-3.288-.913-4.752-1.553a18.731 18.731 0 01-2.289-1.181l-.71-.431c.785.023 1.705.24 2.583.097.796-.128 1.575-.094 2.309-.254 1.829-.402 3.452-.933 4.85-1.752.679-.397 1.709-.862 2.19-1.435-.908.015-1.732-.195-2.406-.433-2.615-.924-4.137-2.621-5.129-5.172.793.088 3.075.294 3.609-.157-.997-.055-1.956-.633-2.643-1.062-2.104-1.316-3.819-3.523-3.806-6.92l.828.393c.53.223 1.067.342 1.696.473.266.055.799.211 1.105.097h-.04c-.406-.473-1.07-.788-1.479-1.298-1.35-1.676-2.614-4.257-1.815-7.333.203-.78.525-1.468.868-2.104l.04.018c.157.329.508.571.73.847.69.854 1.539 1.622 2.406 2.3 2.952 2.309 5.61 3.728 9.88 4.778 1.084.268 2.335.471 3.629.473-.363-1.057-.246-2.771.038-3.794.72-2.577 2.283-4.431 4.576-5.427.548-.237 1.156-.411 1.795-.551.329-.038.657-.079.987-.117z"/></symbol></defs></svg>