<svg xmlns="http://www.w3.org/2000/svg" preserveAspectRatio="xMidYMid" width="32" height="30.5"><path d="M32 16a1.5 1.5 0 01-1.5 1.499 1.49 1.49 0 01-1.02-.405l-.003.004L16.038 3.659 16 3.622 2.554 17.068h-.001a1.5 1.5 0 11-2.092-2.149L14.919.46C15.192.177 15.575 0 16 0h.001c.026 0 .052 0 .079.002l.012.001.068.005.004.001c.367.04.694.212.933.468l.001-.001L23 6.378V5a1.5 1.5 0 113 0v4.378l5.598 5.598-.004.004c.25.268.406.625.406 1.02zm-3 2.5V29a1.5 1.5 0 01-1.5 1.5h-3v-12h-6v12h-14A1.5 1.5 0 013 29V18.5l13-13 13 13zm-15.5 0h-6v6h6v-6z" fill="#95e1d3" fill-rule="evenodd"/></svg>